<svg width="148" height="51" viewBox="0 0 148 51" fill="none" xmlns="http://www.w3.org/2000/svg">
<path d="M52.9976 16.4067H56.1168V21.3023H64.994V16.4067H68.1132V33.5414H64.994V24.2403H56.1168V33.5414H52.9976V16.4067Z" fill="#212121"/>
<path d="M75.5466 16.4067H82.7425L88.5005 33.5414H85.2629L83.4632 28.1556L74.3488 29.7471L73.0294 33.5414H69.7916L75.5466 16.4067ZM82.5023 25.4659L80.4624 19.3448H77.8236L75.3032 26.6882L82.5023 25.4659Z" fill="#212121"/>
<path d="M88.2609 24.9753C88.2609 20.3247 91.4985 15.916 97.4969 15.916C103.255 15.916 105.413 19.7103 106.012 22.2823L102.893 22.6483C102.413 21.0567 101.093 18.854 97.4969 18.854C94.6658 18.854 92.5075 20.5176 91.7164 22.8935H98.6978V25.8315H91.4281C91.7868 28.8414 94.0895 31.0964 97.4969 31.0964C100.494 31.0964 102.294 29.3839 103.015 28.5245L105.654 30.2369C104.933 31.0932 102.774 34.0312 97.4969 34.0312C91.4985 34.0312 88.2609 29.6258 88.2609 24.9753Z" fill="#212121"/>
<path d="M107.69 16.4067H110.809V30.6066H118.245V16.4067H121.365V30.6066H128.801V16.4067H131.919V33.5414H107.69V16.4067Z" fill="#212121"/>
<path d="M77.5932 44.2831H79.9598L81.8524 49.9173H80.786L80.1935 48.1459L77.196 48.6688L76.7605 49.9173H75.6941L77.5932 44.2831ZM79.8797 47.2636L79.2105 45.2504H78.3425L77.5131 47.6655L79.8797 47.2636Z" fill="url(#paint0_linear_540_1732)"/>
<path d="M89.116 47.1002C89.116 45.5316 90.1824 44.1229 92.152 44.1229C93.7691 44.1229 94.7556 45.0904 94.9509 45.9335L93.9261 46.0544C93.7691 45.5316 93.0198 45.0871 92.152 45.0871C90.967 45.0871 90.1408 45.9727 90.1408 47.1002C90.1408 48.2278 90.9702 49.1134 92.152 49.1134C93.3336 49.1134 94.0062 48.4303 94.0062 48.4303V47.7866H92.6259V46.8617H94.9541V49.9207H94.0062V49.5187C94.0062 49.5187 93.2952 50.0808 92.152 50.0808C90.1824 50.0808 89.116 48.6722 89.116 47.1002Z" fill="url(#paint1_linear_540_1732)"/>
<path d="M103.088 44.2831H107.822V45.2504H104.113V46.1754H106.912V47.1426H104.113V48.9532H107.822V49.9205H103.088V44.2831Z" fill="url(#paint2_linear_540_1732)"/>
<path d="M115.951 44.2831H116.782L119.977 48.1067V44.2831H121.003V49.9173H120.173L116.977 46.0937V49.9173H115.951V44.2831Z" fill="url(#paint3_linear_540_1732)"/>
<path d="M129.054 47.1002C129.054 45.5708 130.122 44.1229 132.091 44.1229C133.984 44.1229 134.694 45.3714 134.89 46.2146L133.865 46.3355C133.708 45.8126 133.272 45.0871 132.091 45.0871C130.909 45.0871 130.08 45.9727 130.08 47.1002C130.08 48.2278 130.867 49.1134 132.091 49.1134C133.077 49.1134 133.67 48.5513 133.907 48.267L134.774 48.8291C134.537 49.1101 133.827 50.0774 132.094 50.0774C130.122 50.0808 129.054 48.6297 129.054 47.1002Z" fill="url(#paint4_linear_540_1732)"/>
<path d="M144.565 47.8683L142.16 44.2864H143.344L145.079 46.8617L146.815 44.2864H148L145.595 47.8683V49.9206H144.571V47.8683H144.565Z" fill="url(#paint5_linear_540_1732)"/>
<path d="M65.1545 49.9336H0V0H147.997V33.5341H147.033V0.983754H0.963937V48.9499H65.1545V49.9336Z" fill="#212121"/>
<path d="M47.7407 18.4296C44.0652 9.7437 34.0344 5.6804 25.3387 9.35035C16.6399 13.0205 12.5706 23.0364 16.2461 31.7194C19.9216 40.4053 29.9523 44.4686 38.6479 40.7987C47.3468 37.1286 51.4161 27.1157 47.7407 18.4296ZM24.8362 15.0761L38.6416 14.2385L40.2905 16.2814L29.9107 24.7404L29.6577 20.5588L32.7922 17.8861L25.0346 18.3561L24.8362 15.0761ZM32.3729 36.7737C26.0848 37.1541 22.8191 32.3875 21.9002 31.438L24.9226 29.2481C25.8414 30.1943 27.7145 33.4968 32.1647 33.3466C36.1731 33.2123 37.8924 30.1816 37.7612 28.0396C37.7036 27.0742 37.1208 25.5748 35.0142 24.9994L37.8283 22.7007C40.6554 23.9475 41.3982 26.5371 41.4846 27.9565C41.6927 31.3868 39.3748 36.3485 32.3729 36.7737Z" fill="url(#paint6_linear_540_1732)"/>
<defs>
<linearGradient id="paint0_linear_540_1732" x1="75.6941" y1="47.1089" x2="84.9471" y2="47.1084" gradientUnits="userSpaceOnUse">
<stop offset="0.378125" stop-color="#442CE9"/>
<stop offset="1" stop-color="#2C2C2C"/>
</linearGradient>
<linearGradient id="paint1_linear_540_1732" x1="89.116" y1="47.1111" x2="97.888" y2="47.1106" gradientUnits="userSpaceOnUse">
<stop offset="0.378125" stop-color="#442CE9"/>
<stop offset="1" stop-color="#2C2C2C"/>
</linearGradient>
<linearGradient id="paint2_linear_540_1732" x1="103.088" y1="47.1105" x2="110.2" y2="47.1102" gradientUnits="userSpaceOnUse">
<stop offset="0.378125" stop-color="#442CE9"/>
<stop offset="1" stop-color="#2C2C2C"/>
</linearGradient>
<linearGradient id="paint3_linear_540_1732" x1="115.951" y1="47.1089" x2="123.541" y2="47.1086" gradientUnits="userSpaceOnUse">
<stop offset="0.378125" stop-color="#442CE9"/>
<stop offset="1" stop-color="#2C2C2C"/>
</linearGradient>
<linearGradient id="paint4_linear_540_1732" x1="129.054" y1="47.1094" x2="137.822" y2="47.109" gradientUnits="userSpaceOnUse">
<stop offset="0.378125" stop-color="#442CE9"/>
<stop offset="1" stop-color="#2C2C2C"/>
</linearGradient>
<linearGradient id="paint5_linear_540_1732" x1="142.16" y1="47.1122" x2="150.935" y2="47.1117" gradientUnits="userSpaceOnUse">
<stop offset="0.378125" stop-color="#442CE9"/>
<stop offset="1" stop-color="#2C2C2C"/>
</linearGradient>
<linearGradient id="paint6_linear_540_1732" x1="14.8929" y1="25.1274" x2="66.2806" y2="25.1248" gradientUnits="userSpaceOnUse">
<stop offset="0.378125" stop-color="#442CE9"/>
<stop offset="1" stop-color="#2C2C2C"/>
</linearGradient>
</defs>
</svg>
